<svg xmlns="http://www.w3.org/2000/svg" viewBox="0 0 512 512" style="enable-background:new 0 0 512 512" xml:space="preserve"><path style="fill:#d80027" d="M0 85.337h512v341.326H0z"/><path style="fill:#fff" d="m247.213 216.787 17.594 24.246 28.493-9.239-17.621 24.224 17.592 24.244-28.484-9.274-17.621 24.225.018-29.955-28.484-9.275 28.494-9.239z"/><path style="fill:#fff" d="M199.202 316.602c-33.469 0-60.602-27.133-60.602-60.602s27.133-60.602 60.602-60.602c10.436 0 20.254 2.639 28.827 7.284-13.448-13.152-31.84-21.269-52.135-21.269-41.193 0-74.586 33.394-74.586 74.586s33.394 74.586 74.586 74.586c20.295 0 38.687-8.117 52.135-21.269-8.572 4.647-18.391 7.286-28.827 7.286z"/></svg>