<svg xmlns="http://www.w3.org/2000/svg" viewBox="0 0 512 512" style="enable-background:new 0 0 512 512" xml:space="preserve"><path d="M512 85.331H0v341.337h512V85.331Z" fill="#fff"/><path d="M237.013 285.792h29.663c.329-11.425 2.636-18.457 10.986-25.927 14.612-13.513 26.697-23.621 26.697-42.627 0-28.125-18.787-43.396-50.098-43.396-28.454 0-50.537 13.843-50.976 45.923h34.387c.329-12.854 8.13-18.128 16.589-18.128 10.327 0 15.821 5.493 15.821 17.139 0 9.668-6.812 16.919-17.029 25.488-12.195 10.437-16.04 22.083-16.04 41.528Zm15.271 15.491c-11.426 0-19.117 7.8-19.117 18.018 0 10.217 7.691 18.017 19.117 18.017 11.425 0 19.116-7.8 19.116-18.017 0-10.218-7.691-18.018-19.116-18.018Z" fill="1.71e+31"/></svg>