<svg xmlns="http://www.w3.org/2000/svg" viewBox="0 0 512 512" style="enable-background:new 0 0 512 512" xml:space="preserve"><path style="fill:#6da544" d="M0 85.331h512v341.337H0z"/><path style="fill:#ffda44" d="m256 161.678 128 94.316-128 94.316-128-94.316z"/><circle style="fill:#fff" cx="256" cy="255.994" r="53.894"/><path style="fill:#0052b4" d="M229.052 252.626a90.66 90.66 0 0 0-26.93 4.07c.377 29.44 24.348 53.193 53.877 53.193 18.259 0 34.386-9.089 44.134-22.981-16.676-20.879-42.341-34.282-71.081-34.282zm79.843 13.694c.649-3.344 1-6.793 1-10.326 0-29.765-24.13-53.895-53.895-53.895-22.21 0-41.275 13.438-49.527 32.623a111.276 111.276 0 0 1 22.579-2.307c31.304.001 59.622 13.012 79.843 33.905z"/></svg>