<svg xmlns="http://www.w3.org/2000/svg" viewBox="0 0 512 512" style="enable-background:new 0 0 512 512" xml:space="preserve"><path style="fill:#fff" d="M0 85.337h512v341.326H0z"/><path style="fill:#6da544" d="M0 85.337h512v113.775H0z"/><path style="fill:#d80027" d="M0 312.888h512v113.775H0zm300.345-92.505h-17.863c.148 1.963.232 3.944.232 5.936 0 13.207-3.301 26.01-9.057 35.122-1.775 2.812-4.759 6.78-8.753 9.456v-50.514h-17.809v50.514c-3.994-2.677-6.977-6.646-8.753-9.456-5.756-9.113-9.056-21.915-9.056-35.122 0-1.992.085-3.974.232-5.936h-17.863a100.953 100.953 0 0 0-.177 5.936c.001 36.617 19.557 65.299 44.523 65.299s44.522-28.682 44.522-65.299a102.71 102.71 0 0 0-.178-5.936z"/><path style="fill:#fff" d="M44.522 184.275h22.261v24.421H44.522zm-44.522 0h22.261v24.421H0zm89.043 0h22.261v24.421H89.043zm44.522 0h22.261v24.421h-22.261zm44.522 0h22.261v24.421h-22.261zm44.522 0h22.261v24.421h-22.261zm44.521 0h22.261v24.421H267.13zm44.522 0h22.261v24.421h-22.261zm44.522 0h22.261v24.421h-22.261zm44.522 0h22.261v24.421h-22.261zm44.521 0h22.261v24.421h-22.261zm44.522 0H512v24.421h-22.261zM44.522 302.191h22.261v25.534H44.522zm-44.522 0h22.261v25.534H0zm89.043 0h22.261v25.534H89.043zm44.522 0h22.261v25.534h-22.261zm44.522 0h22.261v25.534h-22.261zm44.522 0h22.261v25.534h-22.261zm44.521 0h22.261v25.534H267.13zm44.522 0h22.261v25.534h-22.261zm44.522 0h22.261v25.534h-22.261zm44.522 0h22.261v25.534h-22.261zm44.521 0h22.261v25.534h-22.261zm44.522 0H512v25.534h-22.261z"/></svg>